<?xml version="1.0" encoding="UTF-8"?>
<svg version="1.1" xmlns="http://www.w3.org/2000/svg" width="1024" height="500">
<path d="M0 0 C1.26457031 0.59361328 1.26457031 0.59361328 2.5546875 1.19921875 C18.91440401 9.47391594 31.90083494 22.14771966 41 38 C41.52464844 38.90105469 42.04929688 39.80210937 42.58984375 40.73046875 C53.56512578 60.97749031 55.99455246 85.33547575 49.8125 107.46875 C45.21071426 122.68642412 37.7593876 137.06103479 26 148 C25.27167969 148.68707031 24.54335937 149.37414062 23.79296875 150.08203125 C22.99503906 150.81808594 22.19710937 151.55414063 21.375 152.3125 C20.61960938 153.00988281 19.86421875 153.70726562 19.0859375 154.42578125 C17 156 17 156 14 156 C14 156.66 14 157.32 14 158 C-1.77138715 169.13274387 -19.54284154 174.16336137 -38.625 174.25 C-40.29369141 174.2809375 -40.29369141 174.2809375 -41.99609375 174.3125 C-49.76247011 174.34866473 -56.57300996 173.23743125 -64 171 C-65.18335938 170.649375 -66.36671875 170.29875 -67.5859375 169.9375 C-71.67328011 168.56360333 -75.53958879 167.23873174 -79.375 165.25 C-82.53443747 163.74550597 -84.53958089 163.54864099 -88 164 C-90.22743787 165.41977909 -90.22743787 165.41977909 -92 167 C-92.66 167 -93.32 167 -94 167 C-96.03633603 173.92370863 -96.03633603 173.92370863 -95 180.875 C-89.64739121 189.23845123 -78.16181244 191.71730588 -69 194 C-55.12511307 196.89688536 -41.10138188 199.26318475 -27 197 C-25.74993164 196.8134082 -25.74993164 196.8134082 -24.47460938 196.62304688 C-8.64833337 194.22512627 5.43991043 190.87834129 19 182 C19.81597656 181.51402344 20.63195312 181.02804687 21.47265625 180.52734375 C30.8520089 174.85914145 39.18598934 168.4191504 46.2578125 160.04296875 C47.36459742 158.74510213 48.50265568 157.47279602 49.6796875 156.23828125 C54.23699869 151.3974507 57.47933615 146.10189688 60.62841797 140.27905273 C63.08746927 135.91048089 65.42720844 133.37456014 70 131 C74.72757128 130.03315835 78.74256025 130.277641 82.9375 132.6875 C86.61851331 136.81469674 88.72164417 139.93700693 88.47265625 145.70703125 C86.6633286 154.48451334 79.7272378 163.33112175 74 170 C73.34 170 72.68 170 72 170 C71.85304688 170.86818359 71.85304688 170.86818359 71.703125 171.75390625 C70.389461 175.95033291 66.95425167 178.84244499 64 182 C63.236875 182.825 62.47375 183.65 61.6875 184.5 C57.6547365 188.25140791 53.33850536 191.61138479 49 195 C48.39671875 195.49371094 47.7934375 195.98742187 47.171875 196.49609375 C18.83721556 219.02342434 -17.42883305 227.21990874 -53 225 C-74.32274474 222.51827703 -99.14843654 216.00877797 -116 202 C-117.051875 201.4225 -118.10375 200.845 -119.1875 200.25 C-124.20260002 197.47616149 -128.80770905 193.89705919 -133 190 C-133 189.34 -133 188.68 -133 188 C-133.84304687 187.64421875 -133.84304687 187.64421875 -134.703125 187.28125 C-137.51894042 185.71052303 -139.47955416 183.78528536 -141.75 181.5 C-142.54921875 180.7059375 -143.3484375 179.911875 -144.171875 179.09375 C-146 177 -146 177 -146 175 C-146.66 175 -147.32 175 -148 175 C-150.1875 172.8125 -150.1875 172.8125 -152 170 C-151.69604998 166.08511106 -150.62159221 164.12544632 -147.85717773 161.40307617 C-147.19656845 160.74276901 -146.53595917 160.08246185 -145.85533142 159.40214539 C-144.78032127 158.35810295 -144.78032127 158.35810295 -143.68359375 157.29296875 C-142.95253922 156.56757401 -142.22148468 155.84217926 -141.46827698 155.09480286 C-139.1339112 152.78280606 -136.7860162 150.48511287 -134.4375 148.1875 C-132.85130164 146.62136576 -131.26600383 145.05431886 -129.68164062 143.48632812 C-125.79814347 139.64690535 -121.90344901 135.81913073 -118 132 C-118.47206145 130.55534166 -118.94657261 129.11148364 -119.42211914 127.66796875 C-119.68610001 126.86383545 -119.95008087 126.05970215 -120.22206116 125.23120117 C-121.10329511 122.70373998 -122.21228344 120.37812525 -123.4375 118 C-132.86861104 97.30871396 -132.92988203 71.99497388 -125.17041016 50.72607422 C-116.28105275 28.41354622 -99.31700119 10.45741251 -77.875 -0.25 C-52.94422042 -10.90061944 -24.77014277 -11.88127187 0 0 Z M-65 13 C-65.89332031 13.32355469 -66.78664062 13.64710938 -67.70703125 13.98046875 C-73.10161935 15.96198912 -78.52419891 18.32434212 -83 22 C-83 22.66 -83 23.32 -83 24 C-83.5775 24.268125 -84.155 24.53625 -84.75 24.8125 C-87.05550043 26.02929189 -89.02056192 27.30333879 -91 29 C-91 29.66 -91 30.32 -91 31 C-91.88558594 31.35964844 -91.88558594 31.35964844 -92.7890625 31.7265625 C-102.91216884 37.55718559 -108.8433065 55.34818296 -112 66 C-116.20614321 85.19226936 -112.55239465 106.61801779 -102.0078125 123.1171875 C-100.07471086 125.80894034 -98.07254994 128.41474379 -96 131 C-95.21625 132.051875 -94.4325 133.10375 -93.625 134.1875 C-82.67376927 145.9209615 -65.55557815 156.2142384 -49.22021484 157.16113281 C-45.93837227 157.20692844 -42.65713519 157.23526539 -39.375 157.25 C-38.24964844 157.270625 -37.12429687 157.29125 -35.96484375 157.3125 C-17.71864626 157.39687548 -0.42266498 149.4761387 12.90625 137.1328125 C16.30486 133.6707956 19.17588852 129.9360201 22 126 C22.51304687 125.34902344 23.02609375 124.69804687 23.5546875 124.02734375 C35.43122661 108.05862925 36.51136039 87.17405829 34.609375 68.078125 C31.03452618 48.18729951 18.33141841 31.39379416 2.05078125 19.921875 C-17.23481201 8.07758541 -43.76914853 3.76505564 -65 13 Z " fill="#FEFEFE" transform="translate(195,168)"/>
<path d="M0 0 C1.258125 0.24492188 2.51625 0.48984375 3.8125 0.7421875 C12.18957199 2.45923942 20.13022415 4.96976721 28.125 8 C29.43984375 8.49814209 29.43984375 8.49814209 30.78125 9.00634766 C38.49304621 12.02432944 45.29697053 16.10022026 52.25 20.5625 C53.16652344 21.14161133 53.16652344 21.14161133 54.1015625 21.73242188 C57.03129572 23.60988192 59.62410455 25.4571087 62 28 C62.763125 28.45375 63.52625 28.9075 64.3125 29.375 C69.48781024 32.50425736 73.3196001 36.2510969 77 41 C77.7425 41.7425 78.485 42.485 79.25 43.25 C88.16576487 52.16576487 100.9061787 65.62438889 102.4375 78.75 C102.33623549 83.65672571 100.06418523 87.27655068 97 91 C92.80990224 93.09504888 87.56419715 92.41047142 83 92 C78.19481118 89.70186622 76.23954966 85.27114954 73.66796875 80.7890625 C67.27390159 70.09734365 59.51897573 60.96446558 50 53 C49.01 52.154375 48.02 51.30875 47 50.4375 C46.01 49.633125 45.02 48.82875 44 48 C43.48824219 47.55140625 42.97648438 47.1028125 42.44921875 46.640625 C20.52257952 28.55479397 -12.38672011 23.64135265 -39.79736328 26.26806641 C-59.31677046 28.78681451 -78.86404111 36.07287936 -94.25 48.5 C-94.83523437 48.96019531 -95.42046875 49.42039063 -96.0234375 49.89453125 C-100.23104387 53.24363498 -104.0204782 56.87384695 -107.6875 60.8125 C-109 62 -109 62 -111 62 C-111.27618164 62.58394531 -111.55236328 63.16789062 -111.83691406 63.76953125 C-112.95284083 65.9095621 -114.17747794 67.74849391 -115.609375 69.6875 C-135.43509142 96.88374785 -142.91549709 127.04641066 -138.125 160.60742188 C-137.19856151 166.2094796 -135.96243014 171.47081211 -133.8125 176.75 C-131.30763111 183.02188102 -130.99661192 189.34192489 -132 196 C-133.84049169 199.53346305 -136.23875975 200.74625325 -140 202 C-144.27381146 202.4161764 -147.90412539 202.47646722 -151.875 200.75 C-156.96364577 196.55935054 -158.50171661 191.3855014 -160.5 185.3125 C-160.80824707 184.38002441 -161.11649414 183.44754883 -161.43408203 182.48681641 C-168.10499363 161.65042461 -169.35639235 140.56411968 -166 119 C-165.88172852 118.22446777 -165.76345703 117.44893555 -165.64160156 116.64990234 C-162.89351791 99.32578723 -157.17608531 83.01322858 -148 68 C-147.44570312 67.08089844 -146.89140625 66.16179687 -146.3203125 65.21484375 C-142.63059665 59.25390281 -138.80575522 53.13543764 -134 48 C-133.34 48 -132.68 48 -132 48 C-131.7628125 47.43796875 -131.525625 46.8759375 -131.28125 46.296875 C-129.71052303 43.48105958 -127.78528536 41.52044584 -125.5 39.25 C-124.7059375 38.45078125 -123.911875 37.6515625 -123.09375 36.828125 C-121 35 -121 35 -119 35 C-118.77183594 34.41863281 -118.54367188 33.83726562 -118.30859375 33.23828125 C-115.59896418 28.60360142 -110.35739948 25.97019143 -106 23 C-105.15050781 22.40832031 -104.30101562 21.81664062 -103.42578125 21.20703125 C-74.06229965 1.55643177 -34.80022966 -7.72352036 0 0 Z " fill="#FEFEFE" transform="translate(181,110)"/>
<path d="M0 0 C9.38432522 7.81411332 15.08720376 16.09960442 18.796875 27.71484375 C19.10757935 28.68744141 19.10757935 28.68744141 19.42456055 29.6796875 C21.97819114 38.25420437 22.12998073 46.8825088 22.09790039 55.77172852 C22.09804642 56.84593552 22.09819244 57.92014252 22.0983429 59.02690125 C22.09765069 62.54920528 22.08989087 66.07145529 22.08203125 69.59375 C22.08016461 72.04711376 22.07874187 74.5004779 22.07774353 76.95384216 C22.07393772 83.38995403 22.06412406 89.8260431 22.05303955 96.262146 C22.04278371 102.83817232 22.03823699 109.41420235 22.03320312 115.99023438 C22.02249997 128.87761386 22.00564098 141.76497759 21.984375 154.65234375 C18.90122115 154.73967888 15.81838673 154.79284502 12.734375 154.83984375 C11.86167969 154.86498047 10.98898437 154.89011719 10.08984375 154.91601562 C3.62531545 154.99003694 3.62531545 154.99003694 0.44042969 153.31201172 C-1.61649247 150.96745155 -2.08631456 148.80404916 -2.765625 145.77734375 C-3.00796875 144.74867188 -3.2503125 143.72 -3.5 142.66015625 C-3.97090225 139.91322648 -4.11813942 137.43048464 -4.015625 134.65234375 C-4.46550781 134.99265625 -4.91539062 135.33296875 -5.37890625 135.68359375 C-6.76511133 136.728109 -8.15481174 137.7679925 -9.546875 138.8046875 C-11.24445355 140.07518537 -12.93145269 141.3599034 -14.609375 142.65625 C-30.76576121 154.88960565 -48.95841502 159.45708248 -69.015625 157.65234375 C-80.33470106 155.86448542 -90.09873829 151.33986251 -97.78515625 142.65234375 C-105.09811887 132.58082054 -107.17762777 120.86789787 -106.015625 108.65234375 C-104.27987821 97.72643761 -97.79381721 89.12829563 -89.0546875 82.59375 C-65.01373854 67.23597155 -35.02087037 63.19820464 -7.015625 63.65234375 C-7.4161955 43.25843207 -7.4161955 43.25843207 -15.015625 24.65234375 C-15.015625 23.99234375 -15.015625 23.33234375 -15.015625 22.65234375 C-15.58023438 22.37519531 -16.14484375 22.09804687 -16.7265625 21.8125 C-18.24899344 21.04089251 -19.75499863 20.23595965 -21.2421875 19.3984375 C-31.6936217 13.69610777 -42.52457824 13.44637773 -54.015625 16.65234375 C-61.64919588 19.54882689 -68.67127876 23.75016087 -75.515625 28.15234375 C-80.01487945 30.91995237 -82.77531528 31.54053184 -88.015625 30.65234375 C-92.89387657 28.0430464 -96.31099933 22.88600528 -98.015625 17.65234375 C-95.34003996 9.27933646 -84.01858575 3.5348064 -76.87207031 -0.39990234 C-73.62732429 -2.05641261 -70.29248062 -3.42460116 -66.890625 -4.72265625 C-66.27058594 -4.96121338 -65.65054688 -5.19977051 -65.01171875 -5.44555664 C-44.83191203 -12.70095233 -17.80218901 -13.15086519 0 0 Z M-72.390625 98.703125 C-76.05711952 103.10115569 -78.17167943 107.97335418 -78.453125 113.71484375 C-77.52979972 122.02477128 -74.44886077 128.15439176 -68.015625 133.65234375 C-60.04226633 138.56787827 -48.36991056 137.69953551 -39.48046875 135.9609375 C-27.79475614 132.63211114 -13.8213638 126.31527499 -7.015625 115.65234375 C-5.21082752 110.10195127 -5.87156625 104.19666378 -6.265625 98.46484375 C-6.32595314 96.9253409 -6.38068236 95.385608 -6.4296875 93.84570312 C-6.56060247 90.10972357 -6.76679597 86.38254618 -7.015625 82.65234375 C-27.57838012 82.4058372 -56.71298803 83.64606116 -72.390625 98.703125 Z " fill="#FFFFFF" transform="translate(487.015625,209.34765625)"/>
<path d="M0 0 C4.03825066 -0.12406007 8.07575638 -0.21455045 12.11547852 -0.2746582 C13.48807102 -0.29972617 14.86053102 -0.33379082 16.23266602 -0.37719727 C18.21050696 -0.43817531 20.18934184 -0.46361009 22.16796875 -0.48828125 C23.35672607 -0.51446533 24.5454834 -0.54064941 25.77026367 -0.56762695 C30.15893802 0.20368364 31.30981654 1.44748604 34 5 C35.83326722 8.45918465 37.32811588 12.02962793 38.81640625 15.6484375 C39.26601715 16.71338943 39.71562805 17.77834137 40.17886353 18.87556458 C41.6515027 22.3706982 43.1070007 25.8726983 44.5625 29.375 C45.5805741 31.80039559 46.59987474 34.22527668 47.62036133 36.6496582 C49.18946441 40.37865893 50.75721717 44.1082036 52.3188324 47.84034729 C55.78480285 56.12326857 59.28698132 64.39008492 62.8203125 72.64453125 C63.27782394 73.71417114 63.73533539 74.78381104 64.20671082 75.88586426 C65.95765068 79.97877107 67.70904125 84.07148161 69.46316528 88.1630249 C77.96755973 108.01533139 77.96755973 108.01533139 81 117 C81.33596191 116.00629395 81.67192383 115.01258789 82.01806641 113.98876953 C85.67326513 103.32773276 89.82756349 92.93789721 94.23202515 82.56655884 C96.2207889 77.88327587 98.19353756 73.19324539 100.16796875 68.50390625 C100.77143883 67.0722538 100.77143883 67.0722538 101.38710022 65.61167908 C106.21566541 54.1410267 110.91771621 42.61869421 115.60888672 31.09130859 C117.09603841 27.44084066 118.59673238 23.79623047 120.1083374 20.15582275 C120.72031995 18.67619817 121.32753579 17.19459575 121.9307251 15.71136475 C122.8432105 13.4725338 123.77303999 11.2416487 124.70703125 9.01171875 C124.97923996 8.3338179 125.25144867 7.65591705 125.53190613 6.95747375 C126.64619812 4.33801448 127.5555238 2.34713003 129.82592773 0.57397461 C132.64468134 -0.17020166 135.16146069 -0.22390725 138.078125 -0.1953125 C139.81835938 -0.18564453 139.81835938 -0.18564453 141.59375 -0.17578125 C142.8003125 -0.15902344 144.006875 -0.14226562 145.25 -0.125 C147.08304688 -0.11146484 147.08304688 -0.11146484 148.953125 -0.09765625 C151.96894782 -0.07409513 154.98437492 -0.04119706 158 0 C157.39375244 3.54104698 156.45262594 6.58955262 155.01318359 9.87744141 C154.60058792 10.82661942 154.18799225 11.77579742 153.76289368 12.7537384 C153.31262314 13.77602036 152.8623526 14.79830231 152.3984375 15.8515625 C151.93040207 16.9250444 151.46236664 17.99852631 150.98014832 19.10453796 C149.97394747 21.41093078 148.96552345 23.71635472 147.95510864 26.02090454 C146.35878204 29.66199181 144.76800487 33.30547205 143.17944336 36.94995117 C141.5855773 40.60614601 139.99146765 44.26223241 138.39567566 47.91758728 C134.41610321 57.03434974 130.47126816 66.16519123 126.5625 75.3125 C125.98750974 76.65659361 125.41247644 78.00066882 124.83740234 79.34472656 C123.60346551 82.22942505 122.37014762 85.1143873 121.13720703 87.99951172 C108.75035331 116.98379065 96.34767848 145.96135773 83.82275391 174.8862915 C82.82588701 177.18906854 81.82993694 179.49224272 80.83496094 181.7958374 C79.45143145 184.99795338 78.0641509 188.19841768 76.67578125 191.3984375 C76.27470657 192.32829468 75.8736319 193.25815186 75.46040344 194.21618652 C74.32748654 196.82061782 73.17176759 199.41283274 72 202 C71.59542572 202.90389465 71.19085144 203.80778931 70.77401733 204.73907471 C66.69747298 213.4319585 66.69747298 213.4319585 62 216 C59.13745117 216.45410156 59.13745117 216.45410156 56.04296875 216.390625 C54.93115234 216.37773437 53.81933594 216.36484375 52.67382812 216.3515625 C50.9480957 216.30128906 50.9480957 216.30128906 49.1875 216.25 C48.01767578 216.23195313 46.84785156 216.21390625 45.64257812 216.1953125 C42.7608822 216.1482644 39.88086203 216.08253709 37 216 C37.65179607 210.95442828 39.82172787 206.72247626 41.97265625 202.17578125 C42.37399277 201.31550827 42.77532928 200.45523529 43.18882751 199.56889343 C44.47493671 196.81433541 45.76834022 194.06328357 47.0625 191.3125 C47.90613714 189.51262195 48.74924112 187.71249389 49.59179688 185.91210938 C50.00674408 185.02651337 50.42169128 184.14091736 50.84921265 183.22848511 C51.68172098 181.44289321 52.50873198 179.65472797 53.33023071 177.86404419 C55.31211364 173.55015672 57.34705116 169.30015378 59.58154297 165.11083984 C63.87913096 157.18552498 63.87913096 157.18552498 64.58129883 148.44604492 C63.32134482 145.07802801 61.78517745 142.11857535 60 139 C59.06952786 136.92770375 58.15818657 134.84671748 57.265625 132.7578125 C56.26317442 130.54562325 55.25781476 128.33475063 54.25 126.125 C53.08924868 123.5613345 51.93266314 120.99580499 50.77734375 118.4296875 C50.47394577 117.75599121 50.17054779 117.08229492 49.85795593 116.38818359 C46.10669386 108.03919763 42.46106195 99.64423733 38.8125 91.25 C37.36739101 87.9269948 35.92203328 84.60409784 34.4765625 81.28125 C34.11213547 80.44340973 33.74770844 79.60556946 33.37223816 78.74234009 C29.54447295 69.94599704 25.69536557 61.15905273 21.83963013 52.37493896 C21.07524233 50.63340711 20.31114038 48.89174977 19.54733276 47.14996338 C15.79513325 38.59396148 12.03155575 30.04389296 8.19921875 21.5234375 C7.91054428 20.8802356 7.62186981 20.23703369 7.32444763 19.57434082 C6.00668543 16.63845833 4.68383662 13.70514461 3.3503418 10.77636719 C2.90215088 9.78024414 2.45395996 8.78412109 1.9921875 7.7578125 C1.60401855 6.9033252 1.21584961 6.04883789 0.81591797 5.16845703 C0 3 0 3 0 0 Z " fill="#FFFFFF" transform="translate(847,203)"/>
<path d="M0 0 C8.12680512 -0.32345493 15.94408403 1.50722688 23.85546875 3.15625 C24.24078985 16.19294725 24.24078985 16.19294725 21.85546875 22.15625 C19.1091534 23.52940767 16.49982846 23.31598171 13.48120117 23.39550781 C3.68545113 23.67541304 -5.32018739 24.40487688 -13.51953125 30.34375 C-24.94188849 42.5819899 -23.40172591 57.81453259 -24.14453125 74.15625 C-8.63453125 74.15625 6.87546875 74.15625 22.85546875 74.15625 C22.85546875 81.08625 22.85546875 88.01625 22.85546875 95.15625 C7.67546875 95.15625 -7.50453125 95.15625 -23.14453125 95.15625 C-23.14453125 140.36625 -23.14453125 185.57625 -23.14453125 232.15625 C-32.71453125 232.15625 -42.28453125 232.15625 -52.14453125 232.15625 C-52.47453125 187.27625 -52.80453125 142.39625 -53.14453125 96.15625 C-58.75453125 95.49625 -64.36453125 94.83625 -70.14453125 94.15625 C-76.14453125 91.15625 -76.14453125 91.15625 -78.14453125 87.15625 C-78.14453125 82.86625 -78.14453125 78.57625 -78.14453125 74.15625 C-69.56453125 74.15625 -60.98453125 74.15625 -52.14453125 74.15625 C-52.1909375 72.30902344 -52.23734375 70.46179688 -52.28515625 68.55859375 C-52.63672143 48.7837233 -52.25370427 30.56396691 -37.89453125 15.34375 C-27.18267866 5.34602091 -14.44138409 1.05219556 0 0 Z " fill="#FFFFFF" transform="translate(819.14453125,131.84375)"/>
<path d="M0 0 C9.9 0 19.8 0 30 0 C30 77.55 30 155.1 30 235 C20.1 235 10.2 235 0 235 C0 157.45 0 79.9 0 0 Z " fill="#FFFFFF" transform="translate(311,129)"/>
<path d="M0 0 C0.99 0.495 0.99 0.495 2 1 C1.57419741 4.02289642 1.13478492 7.04277049 0.6875 10.0625 C0.56955078 10.91005859 0.45160156 11.75761719 0.33007812 12.63085938 C-0.4600364 17.8780302 -1.68481235 22.22046695 -4 27 C-9.41325731 27.10826515 -14.38434881 26.7261776 -19.75 25.875 C-31.64956282 24.23267739 -42.01367944 26.17803942 -51.859375 33.35546875 C-58.04656836 38.87569402 -66.54989939 50.58037426 -67.1386652 58.97773266 C-67.14511775 59.7345247 -67.1515703 60.49131674 -67.15821838 61.27104187 C-67.1680072 62.14182373 -67.17779602 63.01260559 -67.18788147 63.90977478 C-67.19363693 64.86211502 -67.1993924 65.81445526 -67.20532227 66.7956543 C-67.22017166 68.30323807 -67.22017166 68.30323807 -67.23532104 69.84127808 C-67.26695078 73.16890087 -67.29169939 76.49653794 -67.31640625 79.82421875 C-67.3369745 82.12922032 -67.35797093 84.43421811 -67.37937927 86.73921204 C-67.43461326 92.81040384 -67.48401673 98.88162976 -67.53222656 104.95288086 C-67.58243186 111.14635255 -67.638123 117.33977462 -67.69335938 123.53320312 C-67.80095721 135.68876129 -67.90189179 147.84436154 -68 160 C-77.57 160 -87.14 160 -97 160 C-97 106.87 -97 53.74 -97 -1 C-89.74 -1 -82.48 -1 -75 -1 C-71.40254797 2.59745203 -71.43254341 4.05306934 -70.875 9 C-70.75825928 9.99398804 -70.75825928 9.99398804 -70.63916016 11.00805664 C-69.98962469 16.66119396 -69.44814488 22.32742928 -69 28 C-68.39865234 26.98292969 -68.39865234 26.98292969 -67.78515625 25.9453125 C-60.97826045 14.80114295 -53.66027837 6.16539263 -42 0 C-41.19433594 -0.43441406 -40.38867188 -0.86882812 -39.55859375 -1.31640625 C-27.71175566 -6.63728658 -11.45261991 -5.86770032 0 0 Z " fill="#FFFFFF" transform="translate(648,204)"/>
<path d="M0 0 C9.57 0 19.14 0 29 0 C29 53.13 29 106.26 29 161 C19.43 161 9.86 161 0 161 C0 107.87 0 54.74 0 0 Z " fill="#FFFFFF" transform="translate(682,203)"/>
<path d="M0 0 C5.22266653 3.21394864 9.06220419 6.81220017 11.23828125 12.65234375 C12.70977012 19.08897909 12.28935351 24.12773963 9.25 30 C5.66098268 35.59464465 1.48611874 38.12076556 -4.75 40 C-11.84064689 41.01294956 -16.79402544 38.8544689 -22.75 35 C-27.41751647 30.91592309 -28.80442643 26.86477146 -29.66015625 20.8828125 C-29.85211779 14.72335094 -28.23311424 9.83437814 -24.375 5.0625 C-16.52006043 -1.10923823 -9.7870668 -2.60988448 0 0 Z " fill="#FFFFFF" transform="translate(705.75,133)"/>
<path d="M0 0 C17.95495472 0.11491171 33.08330928 6.69247266 46.00390625 19.265625 C56.52415553 30.11787425 62.04174246 44.95075222 62.12890625 59.890625 C62.09731152 61.68249758 62.05930711 63.47433041 62.00390625 65.265625 C57.28515625 67.359375 57.28515625 67.359375 54.75390625 66.515625 C53.00390625 65.265625 53.00390625 65.265625 52.00390625 63.265625 C51.70946425 61.12290353 51.44316157 58.97628017 51.19140625 56.828125 C49.38967776 44.03324155 44.61076727 30.82100819 34 22.66796875 C33.34128906 22.20519531 32.68257812 21.74242187 32.00390625 21.265625 C30.78380859 20.37037109 30.78380859 20.37037109 29.5390625 19.45703125 C20.65981116 13.32945608 11.74377674 11.15300714 1.0625 10.57421875 C-0.99609375 10.265625 -0.99609375 10.265625 -3.99609375 8.265625 C-4.30859375 5.265625 -4.30859375 5.265625 -3.99609375 2.265625 C-1.99609375 0.265625 -1.99609375 0.265625 0 0 Z " fill="#FEFEFE" transform="translate(155.99609375,188.734375)"/>
</svg>
