<svg xmlns="http://www.w3.org/2000/svg" xmlns:xlink="http://www.w3.org/1999/xlink" version="1.1" id="Layer_1" x="0px" y="0px" style="enable-background:new 0 0 2000 2000;" xml:space="preserve" viewBox="587.69 587.69 824.62 824.62">
<style type="text/css">
	.st0{fill:#060A23;}
	.st1{fill:#FFFFFF;}
</style>
<path class="st0" d="M1208.7,1412.31H791.3c-112.45,0-203.61-91.16-203.61-203.61V791.3c0-112.45,91.16-203.61,203.61-203.61h417.4  c112.45,0,203.61,91.16,203.61,203.61v417.4C1412.31,1321.15,1321.15,1412.31,1208.7,1412.31z"/>
<g>
	<path class="st1" d="M911.03,1157.02l1.76-1.76C912.18,1155.82,911.58,1156.41,911.03,1157.02z M920.17,1195.84   c-1.43-0.67-2.85-1.4-4.28-2.12c1.61,1.07,3.37,1.93,5.23,2.57C920.8,1196.15,920.48,1195.99,920.17,1195.84z M938.43,1150.75   c0.97,0.49,1.94,0.97,2.92,1.44C940.42,1151.64,939.43,1151.16,938.43,1150.75z"/>
	<path class="st1" d="M1248.73,886.22c0,6.27-2.51,11.94-6.58,16.08c-0.1,0.11-0.2,0.21-0.31,0.31c-4.14,4.07-9.81,6.58-16.07,6.58   c-8.18,0-15.35-4.27-19.41-10.7c-0.47-0.92-0.97-1.82-1.46-2.72c-10.55-19.23-23.92-36.7-39.55-51.86c-0.03,0.03-0.03,0.03-0.03,0   c-3.93-3.76-7.96-7.39-12.13-10.91c-0.02,0.02-0.02,0.02-0.02,0c-15.73-13.07-33.28-23.98-52.24-32.26   c-2.53-1.11-5.09-2.18-7.67-3.17c-1.29-0.48-2.6-1-3.9-1.48c-2.6-0.97-5.22-1.88-7.85-2.74c0,0,0,0.02-0.03,0   c-5.3-1.72-10.68-3.23-16.14-4.58c-5.45-1.32-10.99-2.41-16.61-3.33c-2.8-0.46-5.62-0.86-8.46-1.18   c-4.28-0.52-8.58-0.89-12.91-1.16c-4.33-0.24-8.68-0.37-13.09-0.37c-59.89,0-114.23,24.35-153.59,63.71   c-11.08,11.05-20.95,23.31-29.44,36.54c-4.71,7.34-8.98,15-12.83,22.91c-3.04,6.32-5.81,12.83-8.26,19.49   c-8.52,23.28-13.2,48.42-13.2,74.62c0,5.62,0.22,11.19,0.65,16.7c0.11,1.86,0.27,3.69,0.48,5.48c0.16,1.83,0.35,3.6,0.62,5.4   c0,0.06,0,0.11,0.03,0.17c0.18,1.77,0.42,3.55,0.72,5.29c0.83,5.4,1.86,10.73,3.06,15.97c0.35,1.58,0.75,3.17,1.16,4.73   c0.05,0.22,0.11,0.43,0.18,0.67c0.3,1.29,0.65,2.56,1.02,3.82c0.17,0.64,0.35,1.31,0.57,1.96c0.3,1.1,0.62,2.2,0.97,3.3   c0.22,0.72,0.43,1.42,0.67,2.12c0.41,1.35,0.83,2.69,1.32,4c0.54,1.67,1.13,3.36,1.75,5c0.62,1.66,1.25,3.31,1.9,4.95   c0.58,1.49,1.19,2.98,1.81,4.45c0.6,2.04,0.92,4.19,0.92,6.42c0,12.68-10.28,22.96-22.96,22.96c-9.39,0-17.45-5.63-21-13.69   c-0.22-0.51-0.42-1.02-0.62-1.53c-12.23-30.34-18.96-63.48-18.96-98.2c0-145.25,117.75-262.98,263.01-262.98   c99.45,0,186.02,55.2,230.69,136.65c0.63,1.15,1.26,2.3,1.86,3.45c0.38,0.87,0.71,1.77,0.97,2.7   C1248.41,881.84,1248.73,883.99,1248.73,886.22z"/>
	<path class="st1" d="M1027.8,861.12c1.67,0.16,3.34,0.35,4.99,0.57C1031.12,861.47,1029.46,861.28,1027.8,861.12z"/>
	<g>
		<path class="st1" d="M1120.74,1007.95c-3.91,0-7.07-3.17-7.07-7.07c0-54.8-44.58-99.38-99.38-99.38c-3.91,0-7.07-3.17-7.07-7.07    c0-3.91,3.17-7.07,7.07-7.07c62.6,0,113.53,50.93,113.53,113.53C1127.81,1004.78,1124.65,1007.95,1120.74,1007.95z"/>
	</g>
	<path class="st1" d="M1247.6,1107.87c-0.27-0.92-0.59-1.82-0.97-2.7c-0.25-0.6-0.53-1.18-0.84-1.76c-0.32-0.58-0.65-1.15-1.02-1.7   c-4.09-6.25-11.16-10.39-19.2-10.39c-8.72,0-16.3,4.86-20.18,12.02c-2.19,4.04-4.49,7.99-6.93,11.87c-2.9,4.62-5.98,9.11-9.2,13.49   c-22.61,30.65-53.04,55.14-88.32,70.57c-0.06,0-0.11,0.03-0.16,0.06c-6.33,2.74-12.8,5.21-19.38,7.37   c-7.93,2.58-16.08,4.7-24.36,6.37c-2.74,0.57-5.48,1.07-8.28,1.51c-0.03-0.02-0.05,0-0.08,0c-2.77,0.46-5.57,0.86-8.39,1.18   c-0.02,0-0.06,0-0.06,0c-4.24,0.52-8.52,0.89-12.85,1.16c0,0,0,0-0.03,0c-4.33,0.24-8.68,0.37-13.07,0.37   c-9.36,0-18.58-0.59-27.63-1.75c-1.81-0.21-3.6-0.46-5.41-0.75c-3.49-0.54-6.96-1.16-10.4-1.86c-0.32-0.08-0.62-0.13-0.94-0.19   c-1.56-0.32-3.09-0.64-4.62-1.02c-3.5-0.81-6.97-1.72-10.4-2.69c-1.72-0.46-3.45-0.97-5.14-1.53c-1.72-0.52-3.39-1.05-5.05-1.64   c-1.7-0.57-3.36-1.16-5.03-1.78c-1.3-0.48-2.55-0.97-3.82-1.45c-0.89-0.32-1.77-0.67-2.64-1.05c-1.16-0.46-2.28-0.92-3.41-1.4   c-2.93-1.24-5.81-2.53-8.67-3.9c-1.86-0.64-3.61-1.51-5.23-2.57c-0.01,0.01-0.01,0-0.02-0.01c-6.67-4.34-11.07-11.87-11.07-20.42   c0-6.26,2.36-11.96,6.23-16.27c0.55-0.62,1.14-1.21,1.76-1.76c0.02-0.02,0.04-0.03,0.06-0.05c4.31-3.9,10.04-6.28,16.32-6.28   c3.28,0,6.4,0.65,9.26,1.82c1.01,0.42,1.99,0.89,2.92,1.44c62.49,30.15,139.8,19.29,191.63-32.53   c14.6-14.6,25.97-31.24,34.04-49.01c19.24-42.16,20.11-90.63,2.6-133.34c-8.2-20-20.41-38.77-36.65-55.01   c-65.57-65.54-171.85-65.54-237.39,0c-16.26,16.24-28.46,35.01-36.64,55.01c-17.53,42.71-16.67,91.19,2.58,133.34   c3.12,6.83,6.69,13.47,10.75,19.93l-35.08,35.24l-24.23,24.34l-8.46,8.49l-0.01,0.01c15.02,19.84,32.8,37.5,52.77,52.37l0.01-0.01   c5.48,4.09,11.12,7.96,16.92,11.62c0.72,0.46,1.45,0.91,2.18,1.36c0.72,0.45,1.46,0.9,2.19,1.34c0.73,0.46,1.47,0.9,2.21,1.32   c1.47,0.87,2.96,1.72,4.45,2.57c0.75,0.42,1.5,0.84,2.26,1.26c0.75,0.41,1.51,0.82,2.26,1.23c0.75,0.41,1.51,0.81,2.27,1.22   c0.76,0.41,1.52,0.8,2.29,1.19c1.53,0.78,3.07,1.56,4.62,2.31c0.77,0.37,1.55,0.75,2.33,1.12c0.77,0.37,1.56,0.73,2.34,1.1   c1.56,0.73,3.14,1.44,4.72,2.14c0.79,0.35,1.59,0.69,2.38,1.03c0.8,0.34,1.59,0.68,2.39,1.02c2.13,0.88,4.27,1.75,6.43,2.58   c1.08,0.42,2.16,0.83,3.25,1.23c1.63,0.61,3.27,1.19,4.91,1.76c2.46,0.86,4.94,1.68,7.45,2.47c0.83,0.27,1.66,0.52,2.51,0.77   c1.67,0.51,3.35,1.01,5.04,1.48c1.27,0.36,2.52,0.71,3.8,1.04c0.6,0.17,1.2,0.32,1.81,0.47c0.82,0.22,1.63,0.42,2.46,0.62   c0.72,0.18,1.43,0.36,2.14,0.52c0.86,0.21,1.72,0.41,2.58,0.61c1.71,0.39,3.45,0.77,5.18,1.12c0.69,0.15,1.38,0.28,2.07,0.42   c0.28,0.06,0.57,0.12,0.85,0.17c0.64,0.12,1.28,0.25,1.93,0.37c2.74,0.52,5.48,0.98,8.26,1.41c0.61,0.1,1.22,0.19,1.83,0.27   c0.5,0.08,1,0.15,1.5,0.22c1.36,0.2,2.72,0.38,4.09,0.55c0.84,0.11,1.67,0.21,2.51,0.31c2.04,0.23,4.09,0.45,6.13,0.63   c0.88,0.08,1.76,0.17,2.66,0.23c0.68,0.06,1.37,0.12,2.06,0.17c0.66,0.05,1.32,0.09,1.98,0.13c0.46,0.03,0.92,0.07,1.37,0.09   c2.36,0.15,4.71,0.26,7.08,0.34c0.58,0.03,1.17,0.04,1.75,0.06c0.57,0.02,1.13,0.03,1.7,0.04c1.96,0.04,3.93,0.07,5.9,0.07   c1.13,0,2.26-0.01,3.4-0.03c2.47-0.02,4.94-0.09,7.39-0.19c0.87-0.03,1.72-0.07,2.59-0.12c0.11-0.01,0.21-0.01,0.32-0.02   c0.97-0.05,1.95-0.11,2.91-0.17c1.04-0.07,2.08-0.13,3.11-0.22c0.81-0.06,1.61-0.12,2.41-0.19c0.02,0.01,0.03,0,0.05,0   c0.62-0.05,1.25-0.11,1.87-0.16c0.6-0.06,1.2-0.12,1.8-0.17c1.66-0.16,3.3-0.33,4.95-0.53c0.72-0.08,1.46-0.17,2.19-0.27   c0.42-0.05,0.84-0.1,1.27-0.16c1.6-0.21,3.2-0.42,4.79-0.67c3.39-0.5,6.75-1.07,10.09-1.7c0.42-0.08,0.84-0.17,1.26-0.24   c5.26-1.02,10.47-2.21,15.61-3.54c0.96-0.24,1.91-0.5,2.87-0.76c0.77-0.21,1.55-0.42,2.32-0.64c1.06-0.29,2.11-0.6,3.17-0.91   c0.65-0.19,1.29-0.38,1.94-0.58c1.51-0.45,3-0.92,4.5-1.41c0.61-0.19,1.22-0.39,1.82-0.6c0.24-0.07,0.47-0.15,0.72-0.23   c0.65-0.22,1.3-0.43,1.94-0.66c1.49-0.51,2.97-1.02,4.44-1.56c0.44-0.16,0.89-0.32,1.34-0.49c0.79-0.29,1.58-0.59,2.37-0.89   c1.69-0.64,3.38-1.3,5.05-1.98c0.6-0.24,1.2-0.48,1.79-0.73c2.82-1.16,5.62-2.37,8.39-3.64c0.82-0.37,1.65-0.75,2.46-1.13   c0.77-0.36,1.55-0.72,2.32-1.1c0.71-0.33,1.41-0.67,2.1-1.02c0.69-0.34,1.38-0.68,2.06-1.02c1.46-0.72,2.9-1.46,4.34-2.22   c0.52-0.28,1.05-0.56,1.57-0.83c0.9-0.47,1.79-0.96,2.67-1.45c1.25-0.68,2.5-1.38,3.74-2.09c2.2-1.24,4.37-2.52,6.53-3.84   c0.87-0.52,1.74-1.07,2.6-1.61c0.55-0.34,1.1-0.68,1.65-1.04c0.96-0.61,1.91-1.22,2.86-1.84c1.61-1.05,3.2-2.11,4.78-3.2   c1.03-0.71,2.06-1.41,3.07-2.14c0.63-0.44,1.26-0.89,1.89-1.34c0.62-0.45,1.25-0.9,1.86-1.36c1.7-1.23,3.38-2.5,5.04-3.78   c0.53-0.41,1.06-0.81,1.57-1.22c0.86-0.67,1.71-1.33,2.55-2.02c0.56-0.44,1.12-0.89,1.67-1.35c1.83-1.48,3.64-3,5.43-4.54   c1.75-1.51,3.48-3.03,5.19-4.58c2.28-2.07,4.52-4.18,6.72-6.32c0.56-0.54,1.11-1.07,1.65-1.61c0.55-0.54,1.09-1.08,1.63-1.63   c1.09-1.09,2.16-2.19,3.22-3.3c4.25-4.44,8.36-9.03,12.29-13.76c10.51-12.63,19.86-26.24,27.87-40.71   c0.88-1.56,1.74-3.15,2.58-4.74c1.06-2.63,1.63-5.49,1.63-8.51C1248.52,1112.05,1248.2,1109.91,1247.6,1107.87z M873.88,1000.87   c0-28.97,8.77-55.9,23.81-78.25c0.22-0.47,0.49-0.93,0.8-1.38c4.76-6.93,10.25-13.52,16.4-19.68   c18.41-18.4,40.69-30.63,64.25-36.66c0.57-0.14,1.16-0.29,1.73-0.43c0.57-0.14,1.13-0.27,1.7-0.4c0.77-0.17,1.53-0.35,2.31-0.51   c0.37-0.08,0.73-0.16,1.1-0.23c1.03-0.22,2.06-0.41,3.1-0.6c0.38-0.07,0.77-0.13,1.16-0.2c0.72-0.13,1.45-0.25,2.18-0.36   c0.56-0.09,1.12-0.17,1.67-0.25c0.47-0.07,0.93-0.13,1.4-0.19c0.65-0.1,1.3-0.17,1.95-0.25c0.56-0.07,1.12-0.13,1.68-0.19   c0.52-0.06,1.04-0.11,1.57-0.17c2.41-0.23,4.85-0.4,7.3-0.51c0.41-0.02,0.82-0.03,1.23-0.05c1.68-0.06,3.37-0.09,5.07-0.09   c1.69,0,3.38,0.03,5.05,0.09c0.43,0.02,0.87,0.03,1.31,0.05c0.69,0.03,1.37,0.07,2.06,0.11c0.48,0.03,0.96,0.06,1.44,0.09   c0.13,0.01,0.27,0.02,0.42,0.03c0.5,0.03,1,0.07,1.5,0.12c0.58,0.04,1.16,0.1,1.74,0.15c1.66,0.17,3.33,0.36,4.99,0.57   c0.56,0.07,1.12,0.15,1.67,0.23c0.98,0.14,1.96,0.29,2.94,0.45c0.17,0.02,0.34,0.05,0.51,0.08c0.52,0.09,1.04,0.18,1.57,0.27   c0.55,0.1,1.11,0.21,1.66,0.32c0.72,0.13,1.42,0.27,2.14,0.43c0.85,0.17,1.69,0.36,2.53,0.55c1.21,0.27,2.41,0.57,3.6,0.87   c1.1,0.27,2.19,0.57,3.28,0.88c0.01,0.01,0.03,0.01,0.04,0.02c22.33,6.3,43.4,18.23,60.95,35.76c6.16,6.16,11.61,12.74,16.37,19.68   c0.28,0.41,0.53,0.83,0.75,1.26c15.09,22.38,23.9,49.35,23.9,78.38c0,77.55-62.86,140.4-140.41,140.4   C936.74,1141.28,873.88,1078.42,873.88,1000.87z"/>
</g>
</svg>